<svg width="400" height="128" viewBox="0 0 400 128" fill="none" xmlns="http://www.w3.org/2000/svg">
<path d="M38.6615 86.3585C43.494 93.6072 42.4708 102.434 42.4598 102.522C40.8992 115.154 32.0255 117.041 26.8748 117.041C22.7406 117.041 10.1609 117.041 10.1609 92.2666L10.1558 34.9563C10.1558 18.4997 16.427 10.1558 28.7951 10.1558C36.3087 10.1558 42.4217 16.3898 42.4217 24.0515C42.4217 31.3095 37.5494 36.3781 30.5741 36.3781V46.5339C43.1182 46.5339 52.5775 36.869 52.5775 24.0515C52.5775 10.7897 41.9097 0 28.7951 0C10.4952 0 0 12.7413 0 34.9563L0.00508803 92.2666C0.00508803 122.659 16.84 127.197 26.8748 127.197C40.9203 127.197 50.7545 118.219 52.5394 103.766C52.6985 102.479 53.8952 90.8998 47.1111 80.7245L38.6615 86.3585Z" fill="#E2DDDC"/>
<path d="M95.8161 0C79.8716 0 66.9458 12.9258 66.9458 28.8703C66.9458 44.8148 79.8716 57.7406 95.8161 57.7406C111.761 57.7406 124.686 44.8148 124.686 28.8703C124.686 12.9258 111.761 0 95.8161 0ZM95.8161 46.9585C85.8417 46.9585 77.727 38.8438 77.727 28.8694C77.727 18.895 85.8417 10.7803 95.8161 10.7803C105.791 10.7803 113.905 18.895 113.905 28.8694C113.905 38.8438 105.791 46.9585 95.8161 46.9585Z" fill="#E2DDDC"/>
<path d="M149.149 54.3925L149.062 16.3346C153.378 19.8985 159.344 22.0829 165.234 22.1313C165.306 22.1321 165.378 22.1321 165.451 22.1321C171.336 22.1321 176.856 20.1488 181.207 16.6124L181.097 54.3933H191.555L191.632 1.67365H180.085L177.653 5.50195C175.014 9.6547 170.459 12.1227 165.448 12.1227C165.406 12.1227 165.363 12.1227 165.322 12.1227C160.261 12.081 155.228 9.37446 152.641 5.14331L150.518 1.67365H138.912L138.915 54.3925H149.149Z" fill="#E2DDDC"/>
<path d="M247.134 14.6245C247.385 14.6262 247.631 14.6279 247.878 14.6279C253.196 14.6279 257.644 14.1265 261.088 13.5278V3.01832C257.952 3.67737 253.233 4.3571 247.224 4.28732C242.055 4.24252 238.373 3.69116 234.474 3.10792C230.48 2.51004 226.35 1.89147 220.394 1.70366C215.565 1.55032 211.545 2.00261 208.368 2.64701V13.2831C210.954 12.5758 214.889 11.8737 220.069 12.0365C223.738 12.152 226.684 12.4587 229.37 12.8179V42.3451C226.779 42.0272 223.909 41.7644 220.394 41.6541C215.565 41.5008 211.545 41.9531 208.368 42.5975V53.2336C210.954 52.5263 214.889 51.8242 220.069 51.987C225.419 52.155 229.244 52.7279 232.943 53.2818C237.023 53.8926 241.241 54.5241 247.133 54.5758C247.384 54.5775 247.63 54.5793 247.878 54.5793C253.196 54.5793 257.643 54.0779 261.087 53.4791V42.9697C257.951 43.6287 253.233 44.3084 247.223 44.2386C244.355 44.2137 241.95 44.0302 239.707 43.7743V14.2213C241.917 14.4427 244.332 14.6004 247.134 14.6245Z" fill="#E2DDDC"/>
<path d="M277.824 54.3002H288.172V12.0382L320.197 12.0262V54.3028H330.544V1.67365L277.824 1.69607V54.3002Z" fill="#E2DDDC"/>
<path d="M85.9362 102.727H100.057V102.677H105.831C109.331 102.677 112.178 105.087 112.178 108.051C112.178 111.014 109.331 113.424 105.831 113.424H75.2363V123.849H105.831C114.843 123.849 122.176 116.763 122.176 108.051C122.176 99.3387 114.843 92.2521 105.831 92.2521H93.0345V92.3017H85.9362C82.4221 92.3017 79.4536 89.8413 79.4536 86.9283C79.4536 84.0153 82.4221 81.555 85.9362 81.555H116.794V71.1297H85.9362C76.8493 71.1297 69.4561 78.2163 69.4561 86.9283C69.4561 95.6404 76.8493 102.727 85.9362 102.727Z" fill="#E2DDDC"/>
<path d="M234.22 123.013L305.956 123.013C320.683 123.013 333.891 111.211 333.891 96.6527C333.891 82.0947 320.684 70.2929 305.956 70.2929L234.22 70.2929C219.493 70.2929 206.694 82.0947 206.694 96.6527C206.694 111.211 219.493 123.013 234.22 123.013ZM234.22 80.685L305.956 80.685C315.301 80.685 323.5 88.1467 323.5 96.6536C323.5 105.161 315.302 112.622 305.956 112.622L234.22 112.622C224.932 112.622 217.086 105.309 217.086 96.6536C217.086 87.9977 224.932 80.685 234.22 80.685Z" fill="#E2DDDC"/>
<path d="M165.272 68.6193C149.328 68.6193 136.402 81.545 136.402 97.4896C136.402 113.434 149.328 126.36 165.272 126.36C181.217 126.36 194.142 113.434 194.142 97.4896C194.142 81.545 181.217 68.6193 165.272 68.6193ZM165.272 115.578C155.298 115.578 147.183 107.463 147.183 97.4887C147.183 87.5142 155.298 79.3996 165.272 79.3996C175.247 79.3996 183.361 87.5142 183.361 97.4887C183.361 107.463 175.247 115.578 165.272 115.578Z" fill="#E2DDDC"/>
<path d="M347.28 122.919H357.628V80.6575L389.653 80.6454V122.922H400V70.2929L347.28 70.3153V122.919Z" fill="#E2DDDC"/>
<path d="M374.567 22.0575V32.3655C381.167 32.3655 385.509 32.8732 387.846 33.9186C389.1 34.4795 389.691 34.97 389.691 37.0342C389.691 41.41 382.245 44.8039 375.84 44.8039C363.299 44.8039 357.587 35.5937 357.587 27.0363C357.587 18.7237 363.453 10.3081 374.664 10.3081C380.687 10.3081 383.87 11.521 387.241 12.8043C390.474 14.0361 393.818 15.3091 398.845 15.3091V5.00109C395.714 5.00109 393.7 4.23319 390.911 3.17146C387.202 1.75754 382.584 0 374.664 0C356.878 0 347.28 13.9296 347.28 27.0363C347.28 43.3041 359.292 55.112 375.841 55.112C387.459 55.112 400 48.2004 400 37.0342C399.999 22.0575 383.456 22.0575 374.567 22.0575Z" fill="#E2DDDC"/>
</svg>
