<?xml version="1.0" encoding="utf-8"?>
<!-- Generator: Adobe Illustrator 24.3.0, SVG Export Plug-In . SVG Version: 6.00 Build 0)  -->
<svg version="1.1" id="Layer_1" xmlns="http://www.w3.org/2000/svg" xmlns:xlink="http://www.w3.org/1999/xlink" x="0px" y="0px"
	 viewBox="0 0 57.9 51.6" style="enable-background:new 0 0 57.9 51.6;" xml:space="preserve">
<style type="text/css">
	.st0{fill:none;}
	.st1{fill:#FFFFFF;}
</style>
<path id="SVGID_x5F_1_x5F_" class="st0" d="M-97.7,26.8c0,11.2-9.1,20.3-20.3,20.3s-20.3-9.1-20.3-20.3s9.1-20.3,20.3-20.3
	S-97.7,15.6-97.7,26.8z"/>
<g>
	<path class="st1" d="M18.8,49.4L18.8,49.4c-1.6,2.4-4.3,2.9-6.5,1.4c-1.8-1.3-2.5-3-1.4-4.9l1.4,1c-0.5,1.1-0.4,2,0.8,2.8
		c1.4,0.9,2.9,0.5,4.2-1.3v-0.1c1.1-1.8,1-3.3-0.4-4.3c-1-0.8-2.2-0.8-3,0.3l-1.4-1c1.5-1.6,3.4-1.8,5.3-0.5
		C20.2,44.5,20.4,47.1,18.8,49.4z"/>
	<path class="st1" d="M10.1,42.9L10.1,42.9c-2.5,1.4-5.2,0.6-6.6-1.8S3,36,5.5,34.7h0.1c2.4-1.3,5.1-0.6,6.5,1.8
		C13.3,39,12.4,41.5,10.1,42.9z M6.3,36.2L6.3,36.2c-1.8,1-2.5,2.7-1.6,4.2C5.6,42,7.2,42.3,9,41.3h0.1c1.8-1,2.4-2.7,1.5-4.2
		C9.9,35.5,8.1,35.2,6.3,36.2z"/>
	<path class="st1" d="M0,31.5v-2.3l6.5-2.4l-6.3-2.5V22l9.4,0.1v1.8l-7.1-0.1l7,2.9v0.5L2.3,30l7.1,0.1v1.5L0,31.5z"/>
	<path class="st1" d="M1.6,17.5l0.6-1.6l8.8,3.4L10.4,21L1.6,17.5z"/>
	<path class="st1" d="M4.2,11.8l1.3-1.6l7.7,1.1L8,7l1-1.3l7.2,5.8l-1.1,1.5l-8.2-1.3l5.6,4.6l-1,1.3L4.2,11.8z"/>
	<path class="st1" d="M14.7,7L14.7,7c-1.3-2.7-0.3-5.2,2.2-6.5c1.8-0.9,3.8-0.8,4.9,1.1l-1.5,0.8c-0.8-1-1.6-1.1-2.8-0.6
		c-1.6,0.8-2,2.4-1.1,4.3v0.1c0.9,1.8,2.3,2.7,4.1,1.9c1.6-0.8,1.8-2,1.3-3.2l-2.2,1L19,4.8l3.7-1.9l0.4,0.8
		c1.1,2.4,0.3,4.4-2.2,5.6C18.3,10.6,16,9.4,14.7,7z"/>
	<path class="st1" d="M45.8,11.6l0.9,1.4c-0.8,0.6-1.1,1.4-0.3,2.7c0.6,0.9,1.5,1.1,2.2,0.6c0.8-0.5,0.8-1,0.1-2.4
		c-1-2-1-3.3,0.4-4.3c1.3-0.9,2.9-0.4,4.1,1.3c1.1,1.6,1,3.2-0.4,4.3l-0.9-1.3c0.8-0.6,0.8-1.4,0.1-2.3c-0.6-0.9-1.3-1-1.9-0.6
		c-0.6,0.4-0.8,0.9-0.1,2.4c1,2,1.1,3.3-0.5,4.3c-1.4,0.9-3.2,0.5-4.3-1.3C43.9,14.2,44.4,12.6,45.8,11.6z"/>
	<path class="st1" d="M52.3,18.5L52.3,18.5c2.8-0.4,5.1,1.1,5.6,3.9c0.4,2.8-1.3,4.9-3.9,5.5h-0.1c-2.7,0.4-5.1-1.1-5.5-3.9
		C47.8,21.2,49.6,19.1,52.3,18.5z M53.4,26.2L53.4,26.2c2-0.3,3.3-1.6,2.9-3.4c-0.4-1.8-1.8-2.7-3.8-2.4h-0.1
		c-2,0.3-3.2,1.8-2.9,3.4C50,25.5,51.5,26.4,53.4,26.2z"/>
	<path class="st1" d="M53.5,30.5L53.5,30.5c2.7,0.9,3.9,3.4,3,6.1c-0.9,2.7-3.4,3.8-6,2.9h-0.1c-2.5-0.9-3.9-3.3-3-6
		C48.5,30.6,51,29.6,53.5,30.5z M51.1,37.7L51.1,37.7c1.9,0.6,3.7,0.1,4.2-1.6c0.6-1.8-0.4-3.2-2.3-3.8h-0.1
		c-1.9-0.6-3.6,0.1-4.2,1.6C48.2,35.5,49.1,37.1,51.1,37.7z"/>
	<path class="st1" d="M52,45.1l-1.5,1.4l-7.6-2l4.7,4.8l-1.1,1.1l-6.6-6.7l1.3-1.3l8,2.2L44,39.5l1.1-1.1L52,45.1z"/>
</g>
</svg>
