<svg width="16" height="16" viewBox="0 0 16 16" fill="none" xmlns="http://www.w3.org/2000/svg">
<path d="M16 0H0V16H16V0Z" fill="#0F0E0E"/>
<path d="M10.3203 4.42246C9.53064 4.43153 8.63647 4.25441 7.76228 4.08951C7.04503 3.95397 6.21161 3.81344 5.59596 3.8008C4.82715 3.7849 4.16789 3.96253 3.7207 4.1099V5.31601C3.97446 5.20666 4.90348 4.86536 6.179 4.97155C5.48417 6.00024 4.93456 7.68024 5.88458 9.56009L6.80738 8.86577C5.97375 6.9903 7.08641 5.57945 7.45502 5.18342C8.35388 5.353 9.38684 5.55448 10.3032 5.55448C10.3099 5.55448 10.3169 5.55448 10.324 5.55448C11.1352 5.55183 11.7793 5.36768 12.2078 5.19841L12.2082 3.94663C12.2011 3.95112 11.4431 4.41869 10.3203 4.42246Z" fill="#E2DDDC"/>
<path d="M9.74985 11.0205C10.4449 9.99163 10.9945 8.31112 10.0437 6.43066L9.12096 7.12498C9.95571 9.00116 8.84254 10.4125 8.47382 10.8087C7.57507 10.6391 6.542 10.4376 5.62572 10.4376C5.6191 10.4376 5.61207 10.4376 5.60493 10.4376C4.79372 10.4402 4.14965 10.6244 3.72111 10.7937L3.7207 12.0454C3.72784 12.0411 4.48565 11.5734 5.6084 11.5696C6.39821 11.5605 7.29227 11.7377 8.16656 11.9026C8.88381 12.0381 9.71724 12.1786 10.3329 12.1913C11.1017 12.2072 11.761 12.0295 12.2081 11.8822V10.6761C11.9543 10.7854 11.0254 11.1267 9.74985 11.0205Z" fill="#E2DDDC"/>
</svg>
