<svg width="74" height="74" viewBox="0 0 74 74" fill="none" xmlns="http://www.w3.org/2000/svg">
<path d="M37 74C57.4345 74 74 57.4345 74 37C74 16.5655 57.4345 0 37 0C16.5655 0 0 16.5655 0 37C0 57.4345 16.5655 74 37 74Z" fill="#FF595A"/>
<path d="M36.7297 25.8945L25.6575 28.1414L19.6729 36.9501L25.4997 44.3509L37.8551 49.0024L50.8502 45.1525L54.3139 37.0539L47.482 27.8216L36.7297 25.8945Z" fill="white"/>
<path d="M54.322 37.0455C48.9894 42.8848 43.4492 45.9083 37.8591 46.0329C31.9825 46.2654 25.8483 43.1091 19.681 36.9459C22.9869 33.3285 26.3716 30.7951 29.7979 29.3582C29.2124 30.4712 28.851 31.7171 28.851 33.0627C28.851 37.4858 32.4393 41.0741 36.8624 41.0741C41.2854 41.0741 44.8737 37.4858 44.8737 33.0627C44.8737 31.8459 44.583 30.7079 44.0971 29.6738C47.4694 31.1731 50.8791 33.6192 54.3137 37.0539L54.322 37.0455L58.7202 32.6474C51.3027 25.2341 43.7316 21.5379 35.9944 21.7331C28.6351 21.9033 21.5997 25.6079 15.0752 32.7512L19.6727 36.95L15.2787 41.3482C22.5259 48.5953 29.9931 52.2708 37.4853 52.2708C37.6598 52.2708 37.83 52.2667 38.0045 52.2625C45.3638 52.0964 52.4033 48.3877 58.9278 41.2485L54.322 37.0455Z" fill="#0F0E0E"/>
</svg>
