<svg width="74" height="74" viewBox="0 0 74 74" fill="none" xmlns="http://www.w3.org/2000/svg">
<path d="M37 0C16.5976 0 0 16.5976 0 37C0 57.4024 16.5976 74 37 74C57.4024 74 74 57.4024 74 37C74 16.5976 57.4024 0 37 0Z" fill="#FF595A"/>
<path d="M58.85 35.5141L54.2309 31.1046C48.8733 37.2353 43.307 40.403 37.6907 40.5337C31.7656 40.7254 25.6235 37.4662 19.4271 31L15 35.6187C17.0404 37.7494 19.1017 39.5533 21.1713 41.0958L16.4062 46.0718L20.8333 50.6949L26.7543 44.5119C29.1118 45.6491 31.4777 46.403 33.8519 46.7777V54.5293H40.1108V46.8779C42.5685 46.5642 44.9802 45.8104 47.3544 44.6688L53.1293 50.6992L57.5565 46.0762L52.879 41.196C54.911 39.6056 56.9056 37.7363 58.85 35.5141Z" fill="black"/>
</svg>
