<svg width="23" height="23" viewBox="0 0 23 23" fill="none" xmlns="http://www.w3.org/2000/svg">
<path d="M11.7763 2.0224C14.7721 2.0224 15.1278 2.03317 16.3114 2.08706C17.4052 2.13735 17.9997 2.32055 18.3948 2.47322C18.9193 2.67617 19.2929 2.92044 19.6844 3.31199C20.0778 3.70533 20.3203 4.07892 20.5232 4.60158C20.6777 4.99672 20.8591 5.59123 20.9094 6.68505C20.9633 7.86867 20.974 8.2225 20.974 11.2202C20.974 14.2178 20.9633 14.5717 20.9094 15.7553C20.8591 16.8491 20.6759 17.4436 20.5232 17.8388C20.3203 18.3632 20.076 18.7368 19.6844 19.1284C19.2911 19.5217 18.9175 19.7642 18.3948 19.9671C17.9997 20.1216 17.4052 20.303 16.3114 20.3533C15.1278 20.4072 14.7739 20.418 11.7763 20.418C8.78038 20.418 8.42475 20.4072 7.24113 20.3533C6.14731 20.303 5.5528 20.1198 5.15766 19.9671C4.6332 19.7642 4.25962 19.5199 3.86807 19.1284C3.47473 18.735 3.23226 18.3614 3.0293 17.8388C2.87483 17.4436 2.69343 16.8491 2.64314 15.7553C2.58926 14.5717 2.57848 14.2178 2.57848 11.2202C2.57848 8.2225 2.58926 7.86867 2.64314 6.68505C2.69343 5.59123 2.87663 4.99672 3.0293 4.60158C3.23226 4.07712 3.47653 3.70354 3.86807 3.31199C4.26142 2.91865 4.635 2.67617 5.15766 2.47322C5.5528 2.31875 6.14731 2.13735 7.24113 2.08706C8.42655 2.03317 8.78038 2.0224 11.7763 2.0224ZM11.7763 0C8.72829 0 8.34573 0.0125726 7.14953 0.0682514C5.95513 0.122134 5.1397 0.31252 4.42486 0.589118C3.68667 0.876492 3.06163 1.25906 2.43659 1.8841C1.81334 2.50734 1.42898 3.13418 1.14161 3.87237C0.865008 4.58542 0.674625 5.40264 0.620742 6.59704C0.566859 7.79323 0.55249 8.1758 0.55249 11.2238C0.55249 14.2717 0.565063 14.6543 0.620742 15.8505C0.674625 17.0449 0.865008 17.8603 1.14161 18.5752C1.42898 19.3134 1.81155 19.9384 2.43659 20.5634C3.05983 21.1867 3.68667 21.571 4.42486 21.8584C5.13791 22.135 5.95513 22.3254 7.14953 22.3793C8.34573 22.4332 8.72829 22.4475 11.7763 22.4475C14.8242 22.4475 15.2068 22.435 16.403 22.3793C17.5974 22.3254 18.4128 22.135 19.1276 21.8584C19.8658 21.571 20.4909 21.1885 21.1159 20.5634C21.7392 19.9402 22.1235 19.3134 22.4109 18.5752C22.6875 17.8621 22.8779 17.0449 22.9318 15.8505C22.9857 14.6543 23 14.2717 23 11.2238C23 8.1758 22.9874 7.79323 22.9318 6.59704C22.8779 5.40264 22.6875 4.58721 22.4109 3.87237C22.1235 3.13418 21.741 2.50914 21.1159 1.8841C20.4927 1.26086 19.8658 0.876492 19.1276 0.589118C18.4146 0.31252 17.5974 0.122134 16.403 0.0682514C15.2068 0.0125726 14.8242 0 11.7763 0Z" fill="#625D60"/>
<path d="M11.7759 5.4585C8.59322 5.4585 6.01404 8.03768 6.01404 11.2204C6.01404 14.403 8.59322 16.9822 11.7759 16.9822C14.9586 16.9822 17.5378 14.403 17.5378 11.2204C17.5378 8.03768 14.9586 5.4585 11.7759 5.4585ZM11.7759 14.9616C9.71039 14.9616 8.03464 13.2877 8.03464 11.2204C8.03464 9.15485 9.7086 7.4791 11.7759 7.4791C13.8432 7.4791 15.5172 9.15305 15.5172 11.2204C15.5172 13.2877 13.8432 14.9616 11.7759 14.9616Z" fill="#625D60"/>
<path d="M17.7688 6.57939C18.5127 6.57939 19.1158 5.97629 19.1158 5.23232C19.1158 4.48836 18.5127 3.88525 17.7688 3.88525C17.0248 3.88525 16.4217 4.48836 16.4217 5.23232C16.4217 5.97629 17.0248 6.57939 17.7688 6.57939Z" fill="#625D60"/>
</svg>
