<svg width="22" height="22" viewBox="0 0 22 22" fill="none" xmlns="http://www.w3.org/2000/svg">
<path fill-rule="evenodd" clip-rule="evenodd" d="M0 1.79789C0 0.804648 0.804648 0 1.79789 0H19.7247C20.7179 0 21.5225 0.804648 21.5225 1.79789V19.7247C21.5225 20.7179 20.7179 21.5225 19.7247 21.5225H1.79789C0.804648 21.5225 0 20.7179 0 19.7247V1.79789ZM8.51885 8.20454H11.4339V9.67015C11.8542 8.82778 12.9301 8.06983 14.5483 8.06983C17.6484 8.06983 18.3848 9.74558 18.3848 12.8205V18.5159H15.2452V13.5228C15.2452 11.7716 14.8249 10.7837 13.7563 10.7837C12.2745 10.7837 11.6584 11.8488 11.6584 13.5228V18.5177H8.51885V8.20454ZM3.13777 18.383H6.27554V8.06983H3.13777V18.383ZM6.72636 4.70755C6.72636 5.82113 5.82292 6.72456 4.70935 6.72456C3.59577 6.72456 2.69054 5.82113 2.69054 4.70755C2.69054 3.59398 3.59398 2.69054 4.70755 2.69054C5.82113 2.69054 6.72636 3.59398 6.72636 4.70755Z" fill="#625D60"/>
</svg>
