<svg width="17" height="17" viewBox="0 0 17 17" fill="none" xmlns="http://www.w3.org/2000/svg">
<path fill-rule="evenodd" clip-rule="evenodd" d="M0 1.4201C0 0.635567 0.635567 0 1.4201 0H15.5799C16.3644 0 17 0.635567 17 1.4201V15.5799C17 16.3644 16.3644 17 15.5799 17H1.4201C0.635567 17 0 16.3644 0 15.5799V1.4201ZM6.72878 6.48051H9.03129V7.63674C9.36327 6.9728 10.2131 6.37553 11.4913 6.37553C13.9399 6.37553 14.5216 7.69916 14.5216 10.1279V14.6266H12.0417V10.6812C12.0417 9.29801 11.7098 8.51773 10.8656 8.51773C9.69524 8.51773 9.20863 9.35901 9.20863 10.6812V14.6266H6.72878V6.48051ZM2.47843 14.5202H4.95686V6.37553H2.47843V14.5202ZM5.31294 3.71835C5.31294 4.59793 4.59935 5.31152 3.71977 5.31152C2.84019 5.31152 2.12518 4.59935 2.12518 3.71835C2.12518 2.83735 2.83877 2.12518 3.71835 2.12518C4.59793 2.12518 5.31294 2.83877 5.31294 3.71835Z" fill="#D5B49E"/>
</svg>
