<?xml version="1.0" encoding="utf-8"?>
<!-- Generator: Adobe Illustrator 24.3.0, SVG Export Plug-In . SVG Version: 6.00 Build 0)  -->
<svg version="1.1" id="Layer_1" xmlns="http://www.w3.org/2000/svg" xmlns:xlink="http://www.w3.org/1999/xlink" x="0px" y="0px"
	 viewBox="0 0 32 32" style="enable-background:new 0 0 32 32;" xml:space="preserve">
<style type="text/css">
	.st0{fill:#0F0E0E;}
</style>
<path class="st0" d="M8.5,19.2c-1-0.1-2.4-0.7-3.2-1.2C3.3,16.8,2,15.3,2,15.3l-1.4,1.2c0.1,0.1,1.6,1.4,3.2,2.5
	c-0.7,1.3-2,4.9-2.1,9.2l1.6,0c0.1-4,1.3-7.3,1.9-8.4c0.9,0.4,2.1,0.9,3,1L8.5,19.2z"/>
<path class="st0" d="M9.3,10.2c-2,0.2-3.5,2-3.3,4.1c0.1,1,0.6,1.9,1.3,2.5c0.7,0.5,1.5,0.8,2.3,0.8c0.1,0,0.3,0,0.4,0
	c1-0.1,1.9-0.6,2.5-1.3c0.6-0.8,0.9-1.7,0.8-2.7c-0.1-1-0.6-1.9-1.3-2.5C11.2,10.4,10.3,10.1,9.3,10.2z M9.7,16.1c-1.1,0-2-1-2-2.1
	c0-1.2,0.9-2.1,2-2.1s2,1,2,2.1C11.7,15.1,10.8,16.1,9.7,16.1z"/>
<path class="st0" d="M11.6,19c0,0,0.5,1.5,0.9,3.9c-2,0.6-3.6,1.2-4.7,1.2c0.1-1,0.2-1.7,0.2-1.7l-1.6-0.2c0,0.1-0.4,3.1-0.4,5.6
	l1.7,0c0-0.6,0-1.5,0.1-2.1c1.9-0.2,2.9-0.6,5-1.2c0.1,0.9,0.3,2.7,0.4,3.7l1.7,0c-0.4-5.5-1.4-9.5-1.4-9.6L11.6,19z"/>
<path class="st0" d="M26.7,9.3c0.6,0.1,3.2,0.8,5,1.8L32,9.5c-4-1.9-7-2.1-7-2.1s0,1.1-0.3,4.4c-0.3,2.4-0.7,4.4-0.7,4.4
	s3.4,0.6,6.5,2.3l0.3-1.7c-1.1-0.6-2.5-1.1-4.7-1.8c0.1-0.7,0.2-1.4,0.3-2.1c2.3,0.6,4.3,1.7,4.3,1.7l0.3-1.7
	c-0.1-0.1-2.3-1.1-4.4-1.6C26.5,10.7,26.7,9.5,26.7,9.3z"/>
<path class="st0" d="M15.1,18.2l1.7,9.6l3.6,0l0-1.6l-2.2,0l-0.4-2.5c0.6,0,1.6-0.1,2.6,0l0.3-1.6c-1.2-0.1-2.3,0-3.1,0l-0.3-2.5
	c0.8-0.1,2.2-0.2,3.8,0l0.3-1.6C19.4,17.8,17.6,17.8,15.1,18.2z"/>
<path class="st0" d="M5.9,6.9c-1.3,1-3.2,3-3.6,6.7h1.7c0.5-4,3.2-5.6,3.7-5.9c1.2,0.5,2.7,1,4.1,1l0.3-1.6c-2.1,0-5.2-1.6-6.5-2.2
	C2.9,3.8,0.1,3.8,0,3.8l0,1.7c0,0,2.6,0,4.9,0.9C5.1,6.5,5.8,6.9,5.9,6.9z"/>
<path class="st0" d="M27.5,24.5c0.6-0.1,2.1-0.2,2.4-1.9c0.3-1.4-0.2-2.7-2.7-3.7c-1.3-0.5-4.2-0.9-4.2-0.9s-1,5.5-1,9.8l1.7,0
	c0-1.3,0.1-2.6,0.2-3.8c0.6,0.1,1.2,0.3,2,0.5c0.1,0.6,0.4,1.5,1.1,2.3c0.8,0.8,1.8,1.5,3.2,1.5l0.3-1.8c-1,0-1.8-0.4-2.3-0.9
	C27.8,25.2,27.6,24.8,27.5,24.5z M26,22.8c-0.6-0.2-1.4-0.4-2-0.5c0.2-1.2,0.2-1.6,0.4-2.3c0.7,0.1,1.6,0.3,2.2,0.5
	c1.5,0.5,1.8,1,1.7,1.8C28,23.1,26.8,23,26,22.8z"/>
<path class="st0" d="M19.1,16.1c1.4,0,2.7-0.7,3.3-1.6c1.1-1.6,0.5-4.1,0.5-4.1s-1.5-0.1-3.3,0.2l-0.3,1.8c1-0.2,1.7-0.3,2.3-0.4
	c0,0.6-0.1,1.1-0.4,1.5c-0.3,0.5-0.9,0.8-1.7,0.9c-0.9,0.1-2.5-0.4-2.9-2c-0.6-1.8,0.1-3.7,1.6-4.2c1.1-0.3,1.8-0.1,2.7,0.2
	c0.5,0.1,1.2,0.2,1.8,0.3l0.3-1.7v0c0,0,0,0,0,0c-0.5,0-1.1-0.1-1.6-0.3c-1-0.3-2.2-0.6-3.7-0.1c-2.3,0.7-3.5,3.5-2.7,6.2
	C15.5,15,17.4,16.1,19.1,16.1z"/>
</svg>
