<svg width="140" height="107" viewBox="0 0 140 107" fill="none" xmlns="http://www.w3.org/2000/svg">
<path d="M37.2612 67.3869C32.9997 66.7873 26.8305 64.2557 23.1365 62.0405C14.6585 56.9568 8.85008 50.2771 8.85008 50.2771L2.52991 55.6332C2.78352 55.9402 9.54322 61.8329 16.6181 66.4348C13.4672 72.0443 7.70284 87.6953 7.45604 106.711L14.6536 106.717C14.8778 89.3886 20.1861 74.9348 22.8683 70.0857C26.892 72.0469 31.8681 73.9269 36.0194 74.5103L37.2612 67.3869Z" fill="#D5B49E"/>
<path d="M40.5585 28.1268C31.6604 29.0375 25.1598 37.0373 26.0651 45.9602C26.5024 50.2831 28.5951 54.1763 31.9539 56.921C34.8757 59.3109 38.4519 60.5806 42.1718 60.5806C42.7273 60.5806 43.286 60.5523 43.847 60.4958C48.1564 60.056 52.037 57.9587 54.7756 54.5904C57.5141 51.2221 58.7802 46.9866 58.3404 42.6637C57.9031 38.3408 55.8107 34.4476 52.4516 31.7013C49.0954 28.9583 44.9019 27.6896 40.5585 28.1268ZM42.2385 53.707C37.3752 53.707 33.4328 49.5075 33.4328 44.3267C33.4328 39.1463 37.3752 34.9465 42.2385 34.9465C47.1018 34.9465 51.0443 39.146 51.0443 44.3267C51.0443 49.5075 47.1018 53.707 42.2385 53.707Z" fill="#D5B49E"/>
<path d="M50.6968 66.679C50.725 66.7761 52.8958 73.4295 54.6607 83.5571C45.8183 86.2137 39.0022 88.6034 34.1004 88.8168C34.5199 84.4221 34.996 81.3624 35.0031 81.3033L27.8508 80.3275C27.7832 80.8238 26.0898 93.762 25.9486 104.86L33.1767 104.859C33.2084 102.301 33.3736 98.3403 33.53 95.8337C42.0116 95.1753 46.4191 93.0458 55.5851 90.4311C56.0495 94.3444 56.8026 102.09 57.1213 106.719L64.3672 106.722C62.8351 82.7548 58.4376 65.2183 58.2627 64.592L50.6968 66.679Z" fill="#D5B49E"/>
<path d="M116.709 24.0875C119.479 24.4763 130.623 27.7105 138.725 32.1292L140 24.7193C122.473 16.5548 109.282 15.5359 109.282 15.5359C109.282 15.5359 109.371 20.4172 107.847 34.6367C106.728 45.0778 104.598 53.9396 104.598 53.9396C104.598 53.9396 119.29 56.4488 133.008 64.112L134.318 56.6687C129.479 54.0955 123.276 51.7163 113.674 48.753C114.231 45.8749 114.72 42.5943 115.133 39.3858C125.013 41.9421 133.94 46.6723 133.945 46.7593L135.258 39.3108C134.83 39.0802 125.037 34.4841 115.938 32.4501C116.197 29.9666 116.687 24.7047 116.709 24.0875Z" fill="#D5B49E"/>
<path d="M66.2545 62.8912L73.6083 104.869L89.3088 104.857L89.3509 97.6982L79.8578 97.6573L78.2319 86.5104C81.0232 86.337 85.3359 86.1912 89.6184 86.4088L90.8949 79.2779C85.6526 78.9703 80.6219 79.1921 77.2132 79.4663L75.7421 68.7222C79.3542 68.3123 85.4868 67.9075 92.3119 68.6484L93.5719 61.4792C84.9841 61.0849 77.1458 61.3165 66.2545 62.8912Z" fill="#D5B49E"/>
<path d="M25.7154 13.5553C20.1508 17.8334 11.7354 26.831 9.96432 42.8835H17.252C19.5328 25.2304 31.2404 18.2586 33.4037 17.1198C38.734 19.3419 45.0458 21.3248 51.4916 21.5343L52.7587 14.329C43.4801 14.4164 29.9801 7.25499 24.3142 4.85885C12.7472 -0.0318264 0.51629 5.25612e-06 0.00259117 5.25612e-06L0 7.41187C0.110125 7.41187 11.3179 7.31085 21.5611 11.5506C22.3789 11.89 25.4404 13.4186 25.7154 13.5553Z" fill="#D5B49E"/>
<path d="M120.434 90.5643C123.116 90.0641 129.458 89.6542 130.942 82.3992C132.177 76.3655 130.257 70.5468 118.968 66.1086C113.234 63.8544 100.409 62.0991 100.409 62.0991C100.409 62.0991 96.186 86.1046 96.186 104.859L103.428 104.862C103.411 99.2832 103.908 93.3291 104.449 88.1944C106.947 88.7291 109.633 89.3059 112.989 90.256C113.435 92.9523 114.695 96.9968 117.827 100.154C121.222 103.575 125.743 106.576 131.675 106.699L132.995 99.0009C128.483 99.1071 125.203 97.2901 122.994 95.0967C121.577 93.6909 120.837 91.9954 120.434 90.5643ZM114 83.2229C111.578 82.4794 107.752 81.5816 105.319 81.071C106.032 75.6847 106.396 73.9021 106.929 70.8434C110.008 71.3631 114.144 72.1712 116.346 72.8539C123.055 74.936 124.344 77.3074 123.579 80.5578C122.667 84.4318 117.128 84.183 114 83.2229Z" fill="#D5B49E"/>
<path d="M83.6117 53.9316C89.7181 53.9316 95.5431 50.7692 98.0769 46.8907C102.681 39.8442 100.148 28.9991 100.148 28.9991C100.148 28.9991 93.7509 28.4989 85.4929 29.9628L84.1225 37.8395C88.4847 36.7998 91.4393 36.3447 93.9819 36.1228C94.0865 38.862 93.578 41.0454 92.3397 42.7961C90.8252 44.9327 88.2062 46.1524 84.8441 46.6091C80.8223 47.1619 74.107 44.7307 72.026 37.908C69.6049 29.9703 72.2712 21.7418 78.9382 19.6829C83.6425 18.2319 86.9427 19.4636 90.9392 20.5852C93.1064 21.1932 96.1523 21.6061 98.8008 21.8968L100.036 14.5431V14.5145C100.028 14.5145 100.02 14.5145 100.008 14.5145C97.6562 14.5145 95.3886 13.9022 92.9885 13.2545C88.5463 12.0553 83.5019 10.6694 76.8112 12.7624C66.6684 15.9355 61.5483 27.9854 65.0875 39.9079C67.7959 49.0286 76.1463 53.9316 83.6117 53.9316Z" fill="#D5B49E"/>
</svg>
