<?xml version="1.0" encoding="utf-8"?>
<!-- Generator: Adobe Illustrator 24.3.0, SVG Export Plug-In . SVG Version: 6.00 Build 0)  -->
<svg version="1.1" id="Layer_1" xmlns="http://www.w3.org/2000/svg" xmlns:xlink="http://www.w3.org/1999/xlink" x="0px" y="0px"
	 viewBox="0 0 58 58" style="enable-background:new 0 0 58 58;" xml:space="preserve">
<style type="text/css">
	.st0{fill:#FF595A;}
</style>
<path class="st0" d="M29,58c16,0,29-13,29-29S45,0,29,0S0,13,0,29S13,58,29,58z"/>
<g>
	<path d="M38.2,7.6L38.2,7.6c0.9-1.5,2.5-2,3.9-1.2c1.1,0.7,1.7,1.7,1.1,3l-0.9-0.5c0.3-0.7,0.1-1.3-0.6-1.7c-0.9-0.5-1.8-0.1-2.5,1
		l0,0.1c-0.6,1.1-0.5,2.1,0.4,2.6c0.7,0.4,1.4,0.3,1.9-0.3l0.9,0.5c-0.8,1.1-2,1.2-3.2,0.6C37.6,10.7,37.3,9.2,38.2,7.6z"/>
	<path d="M43.6,10.9L43.6,10.9c1.3-1.2,3-1.2,4.2,0c1.2,1.2,1.1,2.9-0.1,4.1l0,0c-1.2,1.2-2.9,1.2-4.1,0
		C42.3,13.7,42.5,12,43.6,10.9z M46.9,14.3L46.9,14.3c0.9-0.9,1.1-1.9,0.3-2.7c-0.8-0.8-1.8-0.7-2.7,0.1l0,0c-0.9,0.9-1,2-0.2,2.7
		C44.9,15.2,46,15.1,46.9,14.3z"/>
	<path d="M51.1,15l0.6,1.3l-2.9,3.1l4.2-0.4l0.6,1.3l-5.1,2.5l-0.5-1l3.9-1.9l-4.6,0.4L47.2,20l3.1-3.4l-3.9,1.9L46,17.5L51.1,15z"
		/>
	<path d="M54.2,22.5l0.2,1l-5.6,1.3l-0.2-1L54.2,22.5z"/>
	<path d="M54.9,25.7l0,1.3l-4,2.6l4.1-0.1l0,1l-5.7,0.2l0-1.1l4.3-2.7l-4.4,0.2l0-1L54.9,25.7z"/>
	<path d="M52.1,31.9L52.1,31.9c1.7,0.4,2.6,1.9,2.2,3.5c-0.3,1.2-1.1,2.1-2.5,1.9l0.3-1c0.8,0.1,1.2-0.4,1.4-1.1
		c0.3-1.1-0.4-1.9-1.6-2.2l-0.1,0c-1.2-0.3-2.1,0.1-2.4,1.2c-0.3,1,0.3,1.6,1,1.8l0.3-1.4l0.8,0.2l-0.6,2.4l-0.5-0.1
		c-1.5-0.4-2.2-1.6-1.8-3.1C49,32.2,50.4,31.5,52.1,31.9z"/>
	<path d="M48.6,39.5L48,40.3c-0.5-0.3-1-0.3-1.6,0.5c-0.4,0.5-0.3,1.1,0.1,1.4c0.4,0.3,0.8,0.2,1.4-0.5c0.9-1,1.6-1.3,2.5-0.7
		c0.8,0.5,0.9,1.6,0.2,2.6c-0.7,1-1.6,1.3-2.5,0.8l0.5-0.8c0.6,0.2,1,0.1,1.3-0.4c0.4-0.5,0.3-1-0.1-1.2c-0.4-0.3-0.7-0.2-1.4,0.5
		c-0.9,1-1.6,1.4-2.6,0.7c-0.8-0.6-1-1.7-0.3-2.7C46.6,39,47.6,38.9,48.6,39.5z"/>
	<path d="M46.3,44.6L46.3,44.6c1.1,1.3,1,3-0.2,4.1c-1.3,1.1-3,1-4.1-0.3l0,0c-1.1-1.3-1.1-3,0.3-4.1C43.5,43.1,45.2,43.3,46.3,44.6
		z M42.8,47.6L42.8,47.6c0.8,0.9,1.9,1.2,2.7,0.4c0.8-0.7,0.8-1.8,0-2.7l0,0c-0.8-0.9-1.9-1.1-2.7-0.4C41.9,45.6,42,46.7,42.8,47.6z
		"/>
	<path d="M40.9,49L40.9,49c0.7,1.6,0.1,3.2-1.5,3.9c-1.6,0.7-3.1,0.1-3.8-1.5l0-0.1c-0.7-1.5-0.1-3.1,1.5-3.8
		C38.7,46.8,40.3,47.5,40.9,49z M36.7,50.9L36.7,50.9c0.5,1.1,1.5,1.7,2.5,1.2c1-0.5,1.3-1.5,0.8-2.6l0-0.1
		c-0.5-1.1-1.5-1.6-2.5-1.2C36.4,48.7,36.2,49.8,36.7,50.9z"/>
	<path d="M34.6,54.5l-1.3,0.2l-2.9-3.8l0.5,4.1l-1,0.1l-0.7-5.7l1.1-0.1l3.1,4l-0.5-4.3l1-0.1L34.6,54.5z"/>
</g>
<g>
	<path d="M19.8,50.4L19.8,50.4c-0.9,1.5-2.5,2-3.9,1.2c-1.1-0.7-1.7-1.7-1.1-3l0.9,0.5c-0.3,0.7-0.1,1.3,0.6,1.7
		c0.9,0.5,1.8,0.1,2.5-1l0-0.1c0.6-1.1,0.5-2.1-0.4-2.6c-0.7-0.4-1.4-0.3-1.9,0.3L15.6,47c0.8-1.1,2-1.2,3.2-0.6
		C20.4,47.3,20.7,48.8,19.8,50.4z"/>
	<path d="M14.4,47.1L14.4,47.1c-1.3,1.2-3,1.2-4.2,0C9,45.8,9.1,44.2,10.3,43l0,0c1.2-1.2,2.9-1.2,4.1,0
		C15.7,44.3,15.5,46,14.4,47.1z M11.1,43.7L11.1,43.7c-0.9,0.9-1.1,1.9-0.3,2.7s1.8,0.7,2.7-0.1l0,0c0.9-0.9,1-2,0.2-2.7
		C13.1,42.8,12,42.9,11.1,43.7z"/>
	<path d="M6.9,43l-0.6-1.3l2.9-3.1L4.9,39l-0.6-1.3l5.1-2.5l0.5,1l-3.9,1.9l4.6-0.4l0.2,0.3l-3.1,3.5l3.9-1.9l0.4,0.9L6.9,43z"/>
	<path d="M3.8,35.5l-0.2-1l5.6-1.3l0.2,1L3.8,35.5z"/>
	<path d="M3.1,32.3l0-1.3l4-2.6L3,28.6l0-1l5.7-0.2l0,1.1l-4.3,2.7l4.4-0.2l0,1L3.1,32.3z"/>
	<path d="M5.9,26.1L5.9,26.1c-1.7-0.4-2.6-1.9-2.2-3.5c0.3-1.2,1.1-2.1,2.5-1.9l-0.3,1c-0.8-0.1-1.2,0.4-1.4,1.1
		c-0.3,1.1,0.4,1.9,1.6,2.2l0.1,0c1.2,0.3,2.1-0.1,2.4-1.2c0.3-1-0.3-1.6-1-1.8l-0.3,1.4l-0.8-0.2l0.6-2.4l0.5,0.1
		c1.5,0.4,2.2,1.6,1.8,3.1C9,25.8,7.6,26.5,5.9,26.1z"/>
	<path d="M9.4,18.5l0.6-0.8c0.5,0.3,1,0.3,1.6-0.5c0.4-0.5,0.3-1.1-0.1-1.4c-0.4-0.3-0.8-0.2-1.4,0.5c-0.9,1-1.6,1.3-2.5,0.7
		c-0.8-0.5-0.9-1.6-0.2-2.6c0.7-1,1.6-1.3,2.5-0.8l-0.5,0.8c-0.6-0.2-1-0.1-1.3,0.4c-0.4,0.5-0.3,1,0.1,1.2c0.4,0.3,0.7,0.2,1.4-0.5
		c0.9-1,1.6-1.4,2.6-0.7c0.8,0.6,1,1.7,0.3,2.7C11.4,19,10.4,19.1,9.4,18.5z"/>
	<path d="M11.7,13.4L11.7,13.4c-1.1-1.3-1-3,0.2-4.1c1.3-1.1,3-1,4.1,0.3l0,0c1.1,1.3,1.1,3-0.3,4.1C14.5,14.9,12.8,14.7,11.7,13.4z
		 M15.2,10.4L15.2,10.4c-0.8-0.9-1.9-1.2-2.7-0.4c-0.8,0.7-0.8,1.8,0,2.7l0,0c0.8,0.9,1.9,1.1,2.7,0.4C16.1,12.4,16,11.3,15.2,10.4z
		"/>
	<path d="M17.1,9L17.1,9c-0.7-1.6-0.1-3.2,1.5-3.9c1.6-0.7,3.1-0.1,3.8,1.5l0,0.1c0.7,1.5,0.1,3.1-1.5,3.8
		C19.3,11.2,17.7,10.5,17.1,9z M21.3,7.1L21.3,7.1c-0.5-1.1-1.5-1.7-2.5-1.2c-1,0.5-1.3,1.5-0.8,2.6l0,0.1c0.5,1.1,1.5,1.6,2.5,1.2
		C21.6,9.3,21.8,8.2,21.3,7.1z"/>
	<path d="M23.4,3.5l1.3-0.2l2.9,3.8L27.1,3l1-0.1l0.7,5.7l-1.1,0.1l-3.1-4l0.5,4.3l-1,0.1L23.4,3.5z"/>
</g>
</svg>
