<?xml version="1.0" encoding="utf-8"?>
<!-- Generator: Adobe Illustrator 24.3.0, SVG Export Plug-In . SVG Version: 6.00 Build 0)  -->
<svg version="1.1" id="Layer_1" xmlns="http://www.w3.org/2000/svg" xmlns:xlink="http://www.w3.org/1999/xlink" x="0px" y="0px"
	 viewBox="0 0 58 58" style="enable-background:new 0 0 58 58;" xml:space="preserve">
<style type="text/css">
	.st0{fill:#FFFFFF;}
</style>
<g>
	<path class="st0" d="M37.4,9.5L37.4,9.5c0.8-1.4,2.3-1.8,3.5-1.1c1,0.6,1.5,1.6,1,2.7L41,10.6c0.2-0.7,0.1-1.2-0.6-1.5
		C39.7,8.7,38.9,9,38.3,10v0.1c-0.6,1-0.4,1.9,0.4,2.4c0.6,0.4,1.3,0.3,1.7-0.3l0.8,0.5c-0.8,1-1.8,1.1-2.9,0.5
		C36.8,12.3,36.6,10.9,37.4,9.5z"/>
	<path class="st0" d="M42.3,12.5L42.3,12.5c1.1-1.1,2.7-1.1,3.8,0s1,2.7-0.1,3.7l0,0c-1.1,1.1-2.6,1.1-3.7,0
		C41.2,15.1,41.3,13.6,42.3,12.5z M45.3,15.6L45.3,15.6c0.8-0.8,1-1.8,0.3-2.5s-1.7-0.7-2.5,0.1l0,0c-0.8,0.8-0.9,1.8-0.2,2.5
		C43.5,16.4,44.5,16.4,45.3,15.6z"/>
	<path class="st0" d="M49.2,16.3l0.6,1.2l-2.6,2.8L51,20l0.6,1.2l-4.7,2.3l-0.4-0.9l3.5-1.7l-4.2,0.3l-0.1-0.3l2.9-3.1l-3.5,1.7
		l-0.4-0.8L49.2,16.3z"/>
	<path class="st0" d="M51.9,23.1l0.2,1L47,25.3l-0.2-0.9L51.9,23.1z"/>
	<path class="st0" d="M52.6,26v1.2L49,29.5l3.8-0.1v0.9l-5.2,0.2v-1l3.9-2.5l-4,0.1v-0.9L52.6,26z"/>
	<path class="st0" d="M50,31.7L50,31.7c1.6,0.4,2.4,1.7,2,3.2c-0.3,1.1-1,1.9-2.2,1.8l0.2-0.9c0.7,0.1,1.1-0.3,1.3-1
		c0.2-1-0.3-1.7-1.5-2h-0.1c-1.1-0.3-2,0-2.2,1.1c-0.2,0.9,0.2,1.5,0.9,1.7l0.3-1.3l0.7,0.2L49,36.6l-0.5-0.1
		c-1.4-0.3-2-1.4-1.7-2.9C47.2,32,48.5,31.3,50,31.7z"/>
	<path class="st0" d="M46.8,38.5l-0.5,0.8c-0.5-0.2-1-0.3-1.4,0.4c-0.3,0.5-0.3,1,0.1,1.3c0.4,0.3,0.7,0.2,1.3-0.5
		c0.8-0.9,1.5-1.2,2.3-0.7c0.7,0.5,0.8,1.4,0.2,2.3c-0.6,0.9-1.4,1.2-2.3,0.7l0.5-0.7c0.5,0.2,0.9,0.1,1.2-0.4s0.3-0.9-0.1-1.1
		c-0.4-0.2-0.6-0.2-1.2,0.5c-0.8,0.9-1.5,1.3-2.3,0.7c-0.8-0.5-0.9-1.5-0.3-2.5C45,38.1,46,38,46.8,38.5z"/>
	<path class="st0" d="M44.8,43.2L44.8,43.2c1,1.2,0.9,2.8-0.2,3.8c-1.2,1-2.7,0.9-3.7-0.3l0,0c-1-1.2-1-2.7,0.2-3.7
		C42.2,41.9,43.8,42.1,44.8,43.2z M41.6,46L41.6,46c0.7,0.9,1.7,1.1,2.5,0.4c0.8-0.7,0.7-1.6,0-2.5l0,0c-0.7-0.9-1.7-1-2.5-0.3
		C40.8,44.2,40.8,45.1,41.6,46z"/>
	<path class="st0" d="M39.9,47.2L39.9,47.2c0.6,1.4,0.1,2.9-1.3,3.5c-1.4,0.6-2.8,0-3.5-1.4v-0.1c-0.6-1.4-0.1-2.9,1.3-3.5
		C37.8,45.2,39.3,45.8,39.9,47.2z M36,48.9L36,48.9c0.5,1,1.3,1.5,2.3,1.1c0.9-0.4,1.2-1.3,0.7-2.4v-0.1c-0.5-1-1.4-1.4-2.3-1.1
		C35.8,47,35.5,47.9,36,48.9z"/>
	<path class="st0" d="M34.1,52.2L33,52.3l-2.6-3.5l0.5,3.7L30,52.6l-0.6-5.2l1-0.1l2.8,3.7l-0.5-4l0.9-0.1L34.1,52.2z"/>
</g>
<g>
	<path class="st0" d="M20.6,48.5L20.6,48.5c-0.8,1.4-2.3,1.8-3.5,1.1c-1-0.6-1.5-1.6-1-2.7l0.9,0.5c-0.2,0.7-0.1,1.2,0.6,1.5
		c0.8,0.5,1.7,0.1,2.2-0.9v-0.1c0.6-1,0.4-1.9-0.4-2.4c-0.6-0.4-1.3-0.3-1.7,0.3l-0.8-0.5c0.8-1,1.8-1.1,2.9-0.5
		C21.2,45.7,21.4,47.1,20.6,48.5z"/>
	<path class="st0" d="M15.7,45.5L15.7,45.5c-1.1,1.1-2.7,1.1-3.8,0s-1-2.7,0.1-3.7l0,0c1.1-1.1,2.6-1.1,3.7,0
		C16.8,42.9,16.7,44.4,15.7,45.5z M12.7,42.4L12.7,42.4c-0.8,0.8-1,1.8-0.3,2.5s1.7,0.7,2.5-0.1l0,0c0.8-0.8,0.9-1.8,0.2-2.5
		C14.5,41.6,13.5,41.6,12.7,42.4z"/>
	<path class="st0" d="M8.8,41.7l-0.6-1.2l2.6-2.8L7,38l-0.5-1l4.7-2.3l0.4,0.9l-3.5,1.7l4.2-0.3l0.1,0.3l-2.9,3.1l3.5-1.7l0.4,0.8
		L8.8,41.7z"/>
	<path class="st0" d="M6.1,34.9l-0.2-1l5.1-1.2l0.2,0.9L6.1,34.9z"/>
	<path class="st0" d="M5.4,32v-1.2L9,28.5l-3.8,0.1v-0.9l5.2-0.2v1L6.5,31l4-0.1v0.9L5.4,32z"/>
	<path class="st0" d="M8,26.3L8,26.3c-1.6-0.4-2.4-1.7-2-3.2c0.3-1.1,1-1.9,2.2-1.8l-0.2,1c-0.7-0.1-1.1,0.3-1.3,1
		c-0.2,1,0.3,1.7,1.5,2h0.1c1.1,0.3,2,0,2.2-1.1c0.2-0.9-0.2-1.5-0.9-1.7l-0.3,1.3l-0.7-0.2L9,21.4l0.5,0.1c1.4,0.3,2,1.4,1.7,2.9
		C10.8,26,9.5,26.7,8,26.3z"/>
	<path class="st0" d="M11.2,19.5l0.5-0.8c0.5,0.2,1,0.3,1.4-0.4c0.3-0.5,0.3-1-0.1-1.3c-0.4-0.3-0.7-0.2-1.3,0.5
		c-0.8,0.9-1.5,1.2-2.3,0.7c-0.7-0.5-0.8-1.4-0.2-2.3c0.6-0.9,1.4-1.2,2.3-0.7L11,15.9c-0.5-0.2-0.9-0.1-1.2,0.4
		c-0.3,0.5-0.3,0.9,0.1,1.1c0.4,0.2,0.6,0.2,1.2-0.5c0.8-0.9,1.5-1.3,2.3-0.7c0.8,0.5,0.9,1.5,0.3,2.5C13,19.9,12,20,11.2,19.5z"/>
	<path class="st0" d="M13.2,14.8L13.2,14.8c-1-1.2-0.9-2.8,0.2-3.8c1.2-1,2.7-0.9,3.7,0.3l0,0c1,1.2,1,2.7-0.2,3.7
		C15.8,16.1,14.2,15.9,13.2,14.8z M16.4,12L16.4,12c-0.7-0.9-1.7-1.1-2.5-0.4c-0.8,0.7-0.7,1.6,0,2.5l0,0c0.7,0.9,1.7,1,2.5,0.3
		C17.2,13.8,17.2,12.9,16.4,12z"/>
	<path class="st0" d="M18.1,10.8L18.1,10.8c-0.6-1.4-0.1-2.9,1.3-3.5s2.8,0,3.5,1.4v0.1c0.6,1.4,0.1,2.9-1.3,3.5
		C20.2,12.8,18.7,12.2,18.1,10.8z M22,9.1L22,9.1c-0.5-1-1.3-1.5-2.3-1.1c-0.9,0.4-1.2,1.3-0.7,2.4v0.1c0.5,1,1.4,1.4,2.3,1.1
		C22.2,11,22.5,10.1,22,9.1z"/>
	<path class="st0" d="M23.9,5.8L25,5.7l2.6,3.5l-0.5-3.7L28,5.4l0.6,5.2l-1,0.1L25,6.9l0.5,4L24.6,11L23.9,5.8z"/>
</g>
</svg>
