<?xml version="1.0" encoding="utf-8"?>
<!-- Generator: Adobe Illustrator 24.3.0, SVG Export Plug-In . SVG Version: 6.00 Build 0)  -->
<svg version="1.1" id="Layer_1" xmlns="http://www.w3.org/2000/svg" xmlns:xlink="http://www.w3.org/1999/xlink" x="0px" y="0px"
	 viewBox="0 0 58 58" style="enable-background:new 0 0 58 58;" xml:space="preserve">
<style type="text/css">
	.st0{fill:#FF595A;}
</style>
<path class="st0" d="M29,58c16,0,29-13,29-29S45,0,29,0S0,13,0,29S13,58,29,58z"/>
<path id="SVGID_x5F_1_x5F_" style="fill:none;" d="M-97.7,29c0,11.2-9.1,20.3-20.3,20.3s-20.3-9.1-20.3-20.3s9.1-20.3,20.3-20.3
	S-97.7,17.8-97.7,29z"/>
<text><textPath  xlink:href="#SVGID_x5F_1_x5F_" startOffset="107.9427%">
<tspan  style="font-family:'Graphik-Medium'; font-size:8px;">COMING SOON</tspan></textPath>
</text>
<g>
	<path d="M20.9,46.6L20.9,46.6c-1.3,1.9-3.4,2.3-5.1,1.1c-1.4-1-2-2.4-1.1-3.9l1.1,0.8c-0.4,0.9-0.3,1.6,0.6,2.2
		c1.1,0.7,2.3,0.4,3.3-1l0-0.1c0.9-1.4,0.8-2.6-0.3-3.4c-0.8-0.6-1.7-0.6-2.4,0.2l-1.1-0.8c1.2-1.3,2.7-1.4,4.2-0.4
		C22,42.8,22.2,44.8,20.9,46.6z"/>
	<path d="M14.1,41.5L14.1,41.5c-2,1.1-4.1,0.5-5.2-1.4c-1.1-1.9-0.4-4,1.5-5.1l0.1,0c1.9-1,4-0.5,5.1,1.4
		C16.6,38.4,15.9,40.4,14.1,41.5z M11.1,36.2L11.1,36.2c-1.4,0.8-2,2.1-1.3,3.3c0.7,1.3,2,1.5,3.4,0.7l0.1,0
		c1.4-0.8,1.9-2.1,1.2-3.3C13.9,35.7,12.5,35.4,11.1,36.2z"/>
	<path d="M6.1,32.5l0-1.8l5.1-1.9l-5-2l0-1.8l7.4,0.1l0,1.4L8,26.4l5.5,2.3l0,0.4l-5.6,2.2l5.6,0.1l0,1.2L6.1,32.5z"/>
	<path d="M7.4,21.5l0.5-1.3l6.9,2.7l-0.5,1.3L7.4,21.5z"/>
	<path d="M9.4,17l1-1.3l6.1,0.9l-4.1-3.4l0.8-1l5.7,4.6L18,18l-6.5-1l4.4,3.6l-0.8,1L9.4,17z"/>
	<path d="M17.7,13.2L17.7,13.2c-1-2.1-0.2-4.1,1.7-5.1c1.4-0.7,3-0.6,3.9,0.9l-1.2,0.6c-0.6-0.8-1.3-0.9-2.2-0.5
		c-1.3,0.6-1.6,1.9-0.9,3.4l0,0.1c0.7,1.4,1.8,2.1,3.2,1.5c1.3-0.6,1.4-1.6,1-2.5l-1.7,0.8l-0.4-0.9L24,10l0.3,0.6
		c0.9,1.9,0.2,3.5-1.7,4.4C20.5,16,18.7,15.1,17.7,13.2z"/>
	<path d="M42.2,16.8l0.7,1.1c-0.6,0.5-0.9,1.1-0.2,2.1c0.5,0.7,1.2,0.9,1.7,0.5c0.6-0.4,0.6-0.8,0.1-1.9c-0.8-1.6-0.8-2.6,0.3-3.4
		c1-0.7,2.3-0.3,3.2,1c0.9,1.3,0.8,2.5-0.3,3.4l-0.7-1c0.6-0.5,0.6-1.1,0.1-1.8c-0.5-0.7-1-0.8-1.5-0.5c-0.5,0.3-0.6,0.7-0.1,1.9
		c0.8,1.6,0.9,2.6-0.4,3.4c-1.1,0.7-2.5,0.4-3.4-1C40.7,18.9,41.1,17.6,42.2,16.8z"/>
	<path d="M47.3,22.3L47.3,22.3c2.2-0.3,4,0.9,4.4,3.1c0.3,2.2-1,3.9-3.1,4.3l-0.1,0c-2.1,0.3-4-0.9-4.3-3.1
		C43.8,24.4,45.2,22.7,47.3,22.3z M48.2,28.3L48.2,28.3c1.6-0.2,2.6-1.3,2.3-2.7s-1.4-2.1-3-1.9l-0.1,0c-1.6,0.2-2.5,1.4-2.3,2.7
		C45.5,27.8,46.7,28.5,48.2,28.3z"/>
	<path d="M48.3,31.7L48.3,31.7c2.1,0.7,3.1,2.7,2.4,4.8c-0.7,2.1-2.7,3-4.7,2.3l-0.1,0c-2-0.7-3.1-2.6-2.4-4.7
		C44.3,31.8,46.3,31,48.3,31.7z M46.4,37.4L46.4,37.4c1.5,0.5,2.9,0.1,3.3-1.3c0.5-1.4-0.3-2.5-1.8-3l-0.1,0
		c-1.5-0.5-2.8,0.1-3.3,1.3C44.1,35.7,44.8,36.9,46.4,37.4z"/>
	<path d="M47.1,43.2l-1.2,1.1l-6-1.6l3.7,3.8l-0.9,0.9l-5.2-5.3l1-1l6.3,1.7l-4-4l0.9-0.9L47.1,43.2z"/>
</g>
</svg>
