<?xml version="1.0" encoding="iso-8859-1"?>
<!-- Generator: Adobe Illustrator 24.3.0, SVG Export Plug-In . SVG Version: 6.00 Build 0)  -->
<svg version="1.1" id="Layer_1" xmlns="http://www.w3.org/2000/svg" xmlns:xlink="http://www.w3.org/1999/xlink" x="0px" y="0px"
	 width="32px" height="32px" viewBox="0 0 32 32" enable-background="new 0 0 32 32" xml:space="preserve">
<g>
	<path d="M8.791,5.283C7.03,8.118,4.228,14.452,8.035,21.986l0.202,0.399l3.987-3l-0.121-0.272
		c-2.871-6.46,0.76-11.397,2.174-12.975c0,0,7.277,1.359,10.332,1.331c4.286-0.039,7.374-1.159,7.374-1.159l0.001-5.36
		c0,0-3.338,1.609-7.313,1.609h-0.003c-2.729,0.027-9.328-1.217-9.328-1.217c-2.495-0.471-5.661-1.068-8.024-1.068
		c-4.685,0-7.274,1.24-7.274,1.24v5.273C0.042,6.788,4.347,5.048,8.791,5.283z"/>
	<path d="M23.231,26.856c1.761-2.835,4.563-9.169,0.756-16.703l-0.202-0.399l-3.987,3l0.121,0.272
		c2.871,6.46-0.76,11.397-2.174,12.975c0,0-7.277-1.359-10.332-1.331c-4.286,0.039-7.374,1.159-7.374,1.159l-0.001,5.36
		c0,0,3.338-1.609,7.313-1.609h0.003c2.729-0.027,9.328,1.217,9.328,1.217c2.495,0.471,5.661,1.068,8.024,1.068
		c4.685,0,7.274-1.24,7.274-1.24v-5.273C31.981,25.351,27.675,27.09,23.231,26.856z"/>
</g>
<g>
</g>
<g>
</g>
<g>
</g>
<g>
</g>
<g>
</g>
<g>
</g>
<g>
</g>
<g>
</g>
<g>
</g>
<g>
</g>
<g>
</g>
<g>
</g>
<g>
</g>
<g>
</g>
<g>
</g>
</svg>
