<svg width="18" height="15" viewBox="0 0 18 15" fill="none" xmlns="http://www.w3.org/2000/svg">
<path d="M15.7583 3.98825C15.7647 4.13969 15.7686 4.29243 15.7686 4.44517C15.7686 9.11488 12.2606 14.5 5.84632 14.5C3.87656 14.5 2.04463 13.9151 0.5 12.9125C0.773113 12.9452 1.05009 12.9608 1.33222 12.9608C2.96575 12.9608 4.46916 12.3956 5.66338 11.4478C4.13678 11.4191 2.8498 10.3969 2.40535 8.99347C2.61791 9.03525 2.83563 9.05744 3.06108 9.05744C3.37928 9.05744 3.68718 9.01436 3.9809 8.93342C2.38474 8.60966 1.18278 7.18016 1.18278 5.46867C1.18278 5.453 1.18278 5.43864 1.18407 5.42298C1.65429 5.68799 2.1915 5.84726 2.76349 5.86554C1.82692 5.23238 1.21112 4.15013 1.21112 2.92428C1.21112 2.27676 1.38375 1.66971 1.68392 1.14752C3.40376 3.2859 5.97386 4.69191 8.87246 4.83943C8.8132 4.58094 8.78228 4.3107 8.78228 4.03394C8.78228 2.08355 10.3437 0.5 12.2696 0.5C13.2719 0.5 14.1788 0.929504 14.8152 1.61619C15.6101 1.45822 16.356 1.16319 17.0298 0.758486C16.7696 1.58355 16.2169 2.27546 15.4967 2.71279C16.2027 2.62794 16.8752 2.43734 17.5 2.15666C17.0311 2.86815 16.4385 3.48956 15.7583 3.98825Z" fill="#D5B49E"/>
</svg>
